<svg xmlns="http://www.w3.org/2000/svg" width="256" height="256" viewBox="0 0 256 256">
  <title>Yaru+FlatRemix+Plus Icon Preview</title>
  <style>
    .background { fill: #f5f5f5; }
    .icon-label { font-family: sans-serif; font-size: 12px; fill: #333; text-anchor: middle; }
    .icon-border { fill: none; stroke: #ddd; stroke-width: 1; }
  </style>
  
  <!-- Background -->
  <rect class="background" width="256" height="256"/>
  
  <!-- Grid lines -->
  <line x1="128" y1="0" x2="128" y2="256" stroke="#ddd" stroke-width="1"/>
  <line x1="0" y1="128" x2="256" y2="128" stroke="#ddd" stroke-width="1"/>
  
  <!-- Top-left: Folder Applications -->
  <g transform="translate(32, 32) scale(0.75)">
    <!-- Folder icon from places/scalable/folder-applications.svg -->
    <rect style="opacity:0.2" width="56" height="36" x="4" y="22" rx="2.8" ry="2.8"/>
    <path style="fill:#973552" d="M 4,46.2 C 4,47.751 5.2488,49 6.8,49 H 57.2 C 58.751,49 60,47.751 60,46.2 V 15.8 C 60,14.249 58.751,13 57.2,13 H 32 C 27.8,13 26.4,7 22.2,7 H 6.8 C 5.2488,7 4,8.2488 4,9.8"/>
    <rect style="opacity:0.2" width="56" height="36" x="4" y="20" rx="2.8" ry="2.8"/>
    <rect style="fill:#ff7446" width="48" height="22" x="8" y="16" rx="2.8" ry="2.8"/>
    <rect style="fill:#676767" width="56" height="36" x="4" y="21" rx="2.8" ry="2.8"/>
    <path style="opacity:0.1;fill:#ffffff" d="M 6.8008,7 C 5.2496,7 4,8.2496 4,9.8008 V 10.801 C 4,9.2496 5.2496,8 6.8008,8 H 22.199 C 26.399,8 27.8,14 32,14 H 57.199 C 58.75,14 60,15.25 60,16.801 V 15.801 C 60,14.25 58.75,13 57.199,13 H 32 C 27.8,13 26.399,7 22.199,7 Z"/>
    <path style="fill:#e4e4e4" d="M 24 28 C 22.338 28 21 29.338 21 31 L 21 35 C 21 36.662 22.338 38 24 38 L 28 38 C 29.662 38 31 36.662 31 35 L 31 31 C 31 29.338 29.662 28 28 28 L 24 28 z M 36 28 C 34.338 28 33 29.338 33 31 L 33 35 C 33 36.662 34.338 38 36 38 L 40 38 C 41.662 38 43 36.662 43 35 L 43 31 C 43 29.338 41.662 28 40 28 L 36 28 z M 24 40 C 22.338 40 21 41.338 21 43 L 21 47 C 21 48.662 22.338 50 24 50 L 28 50 C 29.662 50 31 48.662 31 47 L 31 43 C 31 41.338 29.662 40 28 40 L 24 40 z M 37 40 C 36.446 40 36 40.446 36 41 L 36 43 L 34.5 43 C 33.210881 42.999855 32.521966 44.518327 33.371094 45.488281 L 36.871094 49.488281 C 37.468763 50.17123 38.531237 50.17123 39.128906 49.488281 L 42.628906 45.488281 C 43.478034 44.518327 42.789119 42.999855 41.5 43 L 40 43 L 40 41 C 40 40.446 39.554 40 39 40 L 37 40 z"/>
  </g>
  <text class="icon-label" x="64" y="120">Folder</text>
  
  <!-- Top-right: Copy -->
  <g transform="translate(160, 32) scale(2.0)">
    <!-- Copy icon from actions/24/edit-copy.svg -->
    <path fill="#367bf0" d="M 3,1 C 3,1 2,1 2,2 V 11 C 2,11 2,12 3,12 H 4 V 3 H 12 V 2 C 12,1 11,1 11,1 Z M 6,4 C 6,4 5,4 5,5 V 15 C 5,16 6,16 6,16 H 14 C 14,16 15,16 15,15 V 5 C 15,4 14,4 14,4 Z M 7,6 H 13 V 14 H 7 Z"/>
  </g>
  <text class="icon-label" x="192" y="120">Copy</text>
  
  <!-- Bottom-left: Paste -->
  <g transform="translate(32, 160) scale(2.0)">
    <!-- Paste icon from actions/24/edit-paste.svg -->
    <path fill="#3db47e" d="M 8 0 A 2 2 0 0 0 6 2 L 3 2 C 2.446 2 2 2.446 2 3 L 2 14 C 2 14.554 2.446 15 3 15 L 13 15 C 13.554 15 14 14.554 14 14 L 14 3 C 14 2.446 13.554 2 13 2 L 10 2 A 2 2 0 0 0 8 0 z M 8 1 A 1 1 0 0 1 9 2 A 1 1 0 0 1 8 3 A 1 1 0 0 1 7 2 A 1 1 0 0 1 8 1 z M 4 4 L 5 4 L 5 5 L 11 5 L 11 4 L 12 4 L 12 13 L 4 13 L 4 4 z"/>
  </g>
  <text class="icon-label" x="64" y="248">Paste</text>
  
  <!-- Bottom-right: Cut -->
  <g transform="translate(160, 160) scale(2.0)">
    <!-- Cut icon from actions/24/edit-cut.svg -->
    <path fill="#dd4747" d="M 4.5,2 C 3.12,2 2,3.12 2,4.5 2,5.88 3.12,7 4.5,7 4.95,7 5.36,6.86 5.72,6.66 L 7.69,8.5 5.72,10.34 C 5.36,10.14 4.95,10 4.5,10 3.12,10 2,11.12 2,12.5 2,13.88 3.12,15 4.5,15 5.88,15 7,13.88 7,12.5 7,12.27 6.96,12.06 6.91,11.84 L 9.03,9.78 13.5,14 H 15 V 13 L 6.91,5.16 C 6.96,4.95 7,4.73 7,4.5 7,3.12 5.88,2 4.5,2 Z M 4.5,3.5 C 5.05,3.5 5.5,3.95 5.5,4.5 5.5,5.05 5.05,5.5 4.5,5.5 3.95,5.5 3.5,5.05 3.5,4.5 3.5,3.95 3.95,3.5 4.5,3.5 Z M 13.5,3 9.56,6.72 10.88,8 15,4 V 3 Z M 4.5,11.5 C 5.05,11.5 5.5,11.95 5.5,12.5 5.5,13.05 5.05,13.5 4.5,13.5 3.95,13.5 3.5,13.05 3.5,12.5 3.5,11.95 3.95,11.5 4.5,11.5 Z"/>
  </g>
  <text class="icon-label" x="192" y="248">Cut</text>
  
  <!-- Title -->
  <text x="128" y="20" text-anchor="middle" font-family="sans-serif" font-size="16" font-weight="bold" fill="#333">Yaru+FlatRemix+Plus Icon Preview</text>
  <text x="128" y="40" text-anchor="middle" font-family="sans-serif" font-size="12" fill="#666">Mixed icon theme: Yaru + Flat Remix + Oranchelo</text>
</svg>